<?xml version="1.0" encoding="utf-8"?>
<!DOCTYPE svg PUBLIC "-//W3C//DTD SVG 1.1//EN" "http://www.w3.org/Graphics/SVG/1.1/DTD/svg11.dtd">
<svg xmlns="http://www.w3.org/2000/svg" xmlns:xlink="http://www.w3.org/1999/xlink" version="1.1" baseProfile="full" width="154.617" height="106.015" viewBox="0 0 154.62 106.02" enable-background="new 0 0 154.62 106.02" xml:space="preserve">
	<g>
		<path fill="#FFFFFF" fill-opacity="1" stroke-width="0.2" stroke-linejoin="round" d="M 18,0C 21.17,0 24.0188,0.476196 26.5463,1.42871C 29.0739,2.3811 31.0813,3.78613 32.5687,5.64368C 34.0563,7.5011 34.8,9.76233 34.8,12.4274L 24.675,12.4274C 24.675,11.1525 24.0663,10.1223 22.8488,9.3374C 21.6312,8.55237 20.16,8.15979 18.4351,8.15979C 15.9351,8.15979 14.045,8.81995 12.765,10.1399C 11.485,11.46 10.8451,13.3298 10.8451,15.75L 10.8451,18.8098C 10.8451,21.23 11.485,23.0999 12.765,24.4199C 14.045,25.7399 15.9351,26.3999 18.4351,26.3999C 20.16,26.3999 21.6312,25.9512 22.8488,25.0537C 24.0663,24.1563 24.675,23.0049 24.675,21.5999L 17.1825,21.5999L 17.1825,14.8799L 34.8,14.8799L 34.8,33.5999L 29.3251,33.5999L 28.275,30.4424C 25.265,32.8674 21.3275,34.0798 16.4625,34.0798C 10.9926,34.0798 6.88123,32.6525 4.12878,29.7974C 1.37634,26.9424 0,22.6899 0,17.0398C 0,11.4548 1.56006,7.21875 4.68005,4.33118C 7.80005,1.4436 12.24,0 18,0 Z "/>
		<path fill="#FFFFFF" fill-opacity="1" stroke-width="0.2" stroke-linejoin="round" d="M 62.88,33.5999L 61.485,28.7999L 49.92,28.7999L 48.525,33.5999L 37.6801,33.5999L 49.725,0.480103L 62.0625,0.480103L 74.115,33.5999L 62.88,33.5999 Z M 52.125,21.5999L 59.28,21.5999L 55.8225,9.83997L 55.635,9.83997L 52.125,21.5999 Z "/>
		<path fill="#FFFFFF" fill-opacity="1" stroke-width="0.2" stroke-linejoin="round" d="M 101.805,33.5999L 87.9376,17.5649L 87.9376,33.5999L 78.1951,33.5999L 78.1951,0.480103L 87.4575,0.480103L 101.325,16.8448L 101.325,0.480103L 111.075,0.480103L 111.075,33.5999L 101.805,33.5999 Z "/>
		<path fill="#FFFFFF" fill-opacity="1" stroke-width="0.2" stroke-linejoin="round" d="M 135.12,0C 138.29,0 141.139,0.476196 143.666,1.42871C 146.194,2.3811 148.201,3.78613 149.689,5.64368C 151.176,7.5011 151.92,9.76233 151.92,12.4274L 141.795,12.4274C 141.795,11.1525 141.186,10.1223 139.969,9.3374C 138.751,8.55237 137.28,8.15979 135.555,8.15979C 133.055,8.15979 131.165,8.81995 129.885,10.1399C 128.605,11.46 127.965,13.3298 127.965,15.75L 127.965,18.8098C 127.965,21.23 128.605,23.0999 129.885,24.4199C 131.165,25.7399 133.055,26.3999 135.555,26.3999C 137.28,26.3999 138.751,25.9512 139.969,25.0537C 141.186,24.1563 141.795,23.0049 141.795,21.5999L 134.302,21.5999L 134.302,14.8799L 151.92,14.8799L 151.92,33.5999L 146.445,33.5999L 145.395,30.4424C 142.385,32.8674 138.448,34.0798 133.583,34.0798C 128.112,34.0798 124.001,32.6525 121.249,29.7974C 118.496,26.9424 117.12,22.6899 117.12,17.0398C 117.12,11.4548 118.68,7.21875 121.8,4.33118C 124.92,1.4436 129.36,0 135.12,0 Z "/>
	</g>
	<g>
		<path fill="#FFFFFF" fill-opacity="1" stroke-width="0.2" stroke-linejoin="round" d="M 18.0216,82.8638C 19.1688,82.8638 20.2213,83.1013 21.1791,83.5769C 22.1368,84.0524 22.8975,84.7214 23.4607,85.5846C 24.024,86.4475 24.3057,87.4097 24.3057,88.4708C 24.3057,91.282 23.0377,93.053 20.5021,93.7833L 20.5021,93.9176C 23.3893,94.5791 24.8328,96.4791 24.8328,99.6178C 24.8328,100.81 24.5408,101.865 23.9568,102.783C 23.3729,103.701 22.5736,104.414 21.559,104.922C 20.5443,105.431 19.4307,105.685 18.2179,105.685L 2.87476,105.685L 2.87476,82.8638L 18.0216,82.8638 Z M 10.182,91.7937L 15.2103,91.7937C 15.696,91.7937 16.0983,91.6189 16.417,91.2692C 16.7357,90.9194 16.895,90.4845 16.895,89.9644L 16.895,89.6232C 16.895,89.1237 16.7296,88.699 16.3989,88.3494C 16.0682,87.9996 15.672,87.8248 15.2103,87.8248L 10.182,87.8248L 10.182,91.7937 Z M 10.182,100.393L 15.7374,100.393C 16.2233,100.393 16.6263,100.219 16.9467,99.8711C 17.2671,99.5231 17.4274,99.0924 17.4274,98.5791L 17.4274,98.2379C 17.4274,97.7246 17.2671,97.2939 16.9467,96.9459C 16.6263,96.5981 16.2233,96.4241 15.7374,96.4241L 10.182,96.4241L 10.182,100.393 Z "/>
		<path fill="#FFFFFF" fill-opacity="1" stroke-width="0.2" stroke-linejoin="round" d="M 50.1034,89.9126C 50.1034,91.3147 49.7286,92.5845 48.9794,93.7213C 48.23,94.8582 47.1388,95.6936 45.7056,96.2277L 50.7648,105.685L 42.5636,105.685L 38.5275,97.4163L 35.8143,97.4163L 35.8143,105.685L 28.5071,105.685L 28.5071,82.8638L 42.4291,82.8638C 44.0621,82.8638 45.4575,83.1816 46.6151,83.8171C 47.7727,84.4528 48.6434,85.3107 49.2274,86.3907C 49.8114,87.4708 50.1034,88.6448 50.1034,89.9126 Z M 42.6617,90.2898C 42.6617,89.6802 42.4628,89.172 42.0648,88.7654C 41.6669,88.3589 41.182,88.1555 40.6101,88.1555L 35.8143,88.1555L 35.8143,92.4552L 40.6101,92.4552C 41.182,92.4552 41.6669,92.2467 42.0648,91.8298C 42.4628,91.4131 42.6617,90.8997 42.6617,90.2898 Z "/>
		<path fill="#FFFFFF" fill-opacity="1" stroke-width="0.2" stroke-linejoin="round" d="M 77.6219,96.4551C 77.6219,99.566 76.64,101.937 74.6763,103.568C 72.7125,105.2 69.9237,106.015 66.3096,106.015C 62.6921,106.015 59.8972,105.2 57.9248,103.568C 55.9525,101.937 54.9662,99.566 54.9662,96.4551L 54.9662,82.8638L 62.2736,82.8638L 62.2736,96.4861C 62.2736,97.7745 62.6155,98.8029 63.2993,99.5713C 63.9833,100.339 64.9745,100.724 66.2734,100.724C 67.5757,100.724 68.574,100.334 69.2682,99.5558C 69.9624,98.7771 70.3094,97.7539 70.3094,96.4861L 70.3094,82.8638L 77.6219,82.8638L 77.6219,96.4551 Z "/>
		<path fill="#FFFFFF" fill-opacity="1" stroke-width="0.2" stroke-linejoin="round" d="M 91.9419,82.8638C 99.9004,82.8638 103.88,86.6672 103.88,94.2742C 103.88,101.881 99.9004,105.685 91.9419,105.685L 82.0869,105.685L 82.0869,82.8638L 91.9419,82.8638 Z M 89.3942,100.062L 91.8075,100.062C 94.8738,100.062 96.4069,98.4567 96.4069,95.2457L 96.4069,93.3027C 96.4069,90.0918 94.8738,88.4863 91.8075,88.4863L 89.3942,88.4863L 89.3942,100.062 Z "/>
		<path fill="#FFFFFF" fill-opacity="1" stroke-width="0.2" stroke-linejoin="round" d="M 123.46,105.685L 122.499,102.377L 114.53,102.377L 113.569,105.685L 106.097,105.685L 114.396,82.8638L 122.897,82.8638L 131.202,105.685L 123.46,105.685 Z M 116.05,97.4163L 120.98,97.4163L 118.598,89.3131L 118.468,89.3131L 116.05,97.4163 Z "/>
		<path fill="#FFFFFF" fill-opacity="1" stroke-width="0.2" stroke-linejoin="round" d="M 153.956,89.9126C 153.956,91.3147 153.581,92.5845 152.832,93.7213C 152.082,94.8582 150.991,95.6936 149.558,96.2277L 154.617,105.685L 146.416,105.685L 142.38,97.4163L 139.667,97.4163L 139.667,105.685L 132.359,105.685L 132.359,82.8638L 146.281,82.8638C 147.914,82.8638 149.31,83.1816 150.467,83.8171C 151.625,84.4528 152.496,85.3107 153.08,86.3907C 153.664,87.4708 153.956,88.6448 153.956,89.9126 Z M 146.514,90.2898C 146.514,89.6802 146.315,89.172 145.917,88.7654C 145.519,88.3589 145.034,88.1555 144.462,88.1555L 139.667,88.1555L 139.667,92.4552L 144.462,92.4552C 145.034,92.4552 145.519,92.2467 145.917,91.8298C 146.315,91.4131 146.514,90.8997 146.514,90.2898 Z "/>
	</g>
	<g>
		<path fill="#FFFFFF" fill-opacity="1" stroke-width="0.2" stroke-linejoin="round" d="M 24.7325,41.6631C 26.3976,41.6631 27.925,42.0078 29.3151,42.6979C 30.7051,43.3878 31.8088,44.359 32.6263,45.6116C 33.4438,46.864 33.8527,48.2604 33.8527,49.8004C 33.8527,53.8804 32.0126,56.4503 28.3326,57.5104L 28.3326,57.7053C 32.5226,58.6653 34.6176,61.4229 34.6176,65.9778C 34.6176,67.7078 34.1938,69.239 33.3463,70.5715C 32.4989,71.9041 31.3389,72.9391 29.8663,73.6765C 28.3939,74.4141 26.7776,74.7828 25.0176,74.7828L 2.75012,74.7828L 2.75012,41.6631L 24.7325,41.6631 Z M 13.3551,54.6228L 20.6526,54.6228C 21.3575,54.6228 21.9413,54.3691 22.4038,53.8616C 22.8663,53.3541 23.0975,52.7229 23.0975,51.9679L 23.0975,51.4728C 23.0975,50.7478 22.8575,50.1316 22.3776,49.6241C 21.8976,49.1167 21.3226,48.8629 20.6526,48.8629L 13.3551,48.8629L 13.3551,54.6228 Z M 13.3551,67.1028L 21.4176,67.1028C 22.1226,67.1028 22.7076,66.8503 23.1726,66.3453C 23.6376,65.8403 23.8701,65.2153 23.8701,64.4703L 23.8701,63.9753C 23.8701,63.2302 23.6376,62.6052 23.1726,62.1003C 22.7076,61.5953 22.1226,61.3429 21.4176,61.3429L 13.3551,61.3429L 13.3551,67.1028 Z "/>
		<path fill="#FFFFFF" fill-opacity="1" stroke-width="0.2" stroke-linejoin="round" d="M 63.035,74.7828L 61.6401,69.9829L 50.0751,69.9829L 48.6801,74.7828L 37.8351,74.7828L 49.8801,41.6631L 62.2177,41.6631L 74.2701,74.7828L 63.035,74.7828 Z M 52.2802,62.7828L 59.4352,62.7828L 55.9777,51.0229L 55.7902,51.0229L 52.2802,62.7828 Z "/>
		<path fill="#FFFFFF" fill-opacity="1" stroke-width="0.2" stroke-linejoin="round" d="M 101.96,74.7828L 88.0927,58.7478L 88.0927,74.7828L 78.3501,74.7828L 78.3501,41.6631L 87.6125,41.6631L 101.48,58.0278L 101.48,41.6631L 111.23,41.6631L 111.23,74.7828L 101.96,74.7828 Z "/>
		<path fill="#FFFFFF" fill-opacity="1" stroke-width="0.2" stroke-linejoin="round" d="M 135.275,41.1829C 138.445,41.1829 141.294,41.6592 143.821,42.6116C 146.349,43.5641 148.356,44.969 149.844,46.8267C 151.331,48.6841 152.075,50.9453 152.075,53.6104L 141.95,53.6104C 141.95,52.3354 141.341,51.3053 140.124,50.5203C 138.906,49.7354 137.435,49.3428 135.71,49.3428C 133.21,49.3428 131.32,50.0029 130.04,51.3229C 128.76,52.6428 128.12,54.5128 128.12,56.9329L 128.12,59.9928C 128.12,62.4128 128.76,64.2828 130.04,65.6028C 131.32,66.9229 133.21,67.5828 135.71,67.5828C 137.435,67.5828 138.906,67.134 140.124,66.2366C 141.341,65.3391 141.95,64.1877 141.95,62.7828L 134.458,62.7828L 134.458,56.0627L 152.075,56.0627L 152.075,74.7828L 146.6,74.7828L 145.55,71.6252C 142.54,74.0504 138.603,75.2628 133.738,75.2628C 128.268,75.2628 124.156,73.8354 121.404,70.9802C 118.651,68.1252 117.275,63.8728 117.275,58.2228C 117.275,52.6378 118.835,48.4016 121.955,45.5142C 125.075,42.6266 129.515,41.1829 135.275,41.1829 Z "/>
	</g>
</svg>
